<mxfile host="app.diagrams.net" agent="Mozilla/5.0 (X11; Linux x86_64) AppleWebKit/537.36 (KHTML, like Gecko) Chrome/136.0.0.0 Safari/537.36" version="27.2.0">
  <diagram name="ML Pipeline" id="eVOmrs8MSlbzeXd1V6C2">
    <mxGraphModel dx="1360" dy="759" grid="1" gridSize="10" guides="1" tooltips="1" connect="1" arrows="1" fold="1" page="1" pageScale="1" pageWidth="1169" pageHeight="827" math="0" shadow="0">
      <root>
        <mxCell id="0" />
        <mxCell id="1" parent="0" />
        <mxCell id="TuEI_6CooeL6YMEbKrYp-8" style="edgeStyle=orthogonalEdgeStyle;rounded=0;orthogonalLoop=1;jettySize=auto;html=1;entryX=0;entryY=0.5;entryDx=0;entryDy=0;" parent="1" source="TuEI_6CooeL6YMEbKrYp-2" target="TuEI_6CooeL6YMEbKrYp-3" edge="1">
          <mxGeometry relative="1" as="geometry" />
        </mxCell>
        <mxCell id="TuEI_6CooeL6YMEbKrYp-2" value="&lt;div&gt;Activity Input&lt;/div&gt;Datasets" style="shape=cylinder3;whiteSpace=wrap;html=1;boundedLbl=1;backgroundOutline=1;size=15;fillColor=#f5f5f5;fontColor=#333333;strokeColor=#666666;" parent="1" vertex="1">
          <mxGeometry x="110" y="328.75" width="60" height="80" as="geometry" />
        </mxCell>
        <mxCell id="TuEI_6CooeL6YMEbKrYp-9" style="edgeStyle=orthogonalEdgeStyle;rounded=0;orthogonalLoop=1;jettySize=auto;html=1;entryX=0;entryY=0.5;entryDx=0;entryDy=0;" parent="1" source="TuEI_6CooeL6YMEbKrYp-3" target="TuEI_6CooeL6YMEbKrYp-4" edge="1">
          <mxGeometry relative="1" as="geometry" />
        </mxCell>
        <mxCell id="TuEI_6CooeL6YMEbKrYp-3" value="Converter" style="rounded=0;whiteSpace=wrap;html=1;fillColor=#dae8fc;strokeColor=#6c8ebf;" parent="1" vertex="1">
          <mxGeometry x="240" y="338.75" width="120" height="60" as="geometry" />
        </mxCell>
        <mxCell id="TuEI_6CooeL6YMEbKrYp-10" style="edgeStyle=orthogonalEdgeStyle;rounded=0;orthogonalLoop=1;jettySize=auto;html=1;entryX=0;entryY=0.5;entryDx=0;entryDy=0;" parent="1" source="TuEI_6CooeL6YMEbKrYp-4" target="0BbZo_aPZFD1kCcCwOeu-2" edge="1">
          <mxGeometry relative="1" as="geometry" />
        </mxCell>
        <mxCell id="TuEI_6CooeL6YMEbKrYp-4" value="Windowed" style="rounded=0;whiteSpace=wrap;html=1;fillColor=#dae8fc;strokeColor=#6c8ebf;" parent="1" vertex="1">
          <mxGeometry x="410" y="338.75" width="120" height="60" as="geometry" />
        </mxCell>
        <mxCell id="TuEI_6CooeL6YMEbKrYp-11" style="edgeStyle=orthogonalEdgeStyle;rounded=0;orthogonalLoop=1;jettySize=auto;html=1;entryX=0;entryY=0.75;entryDx=0;entryDy=0;exitX=1;exitY=0.75;exitDx=0;exitDy=0;" parent="1" source="TuEI_6CooeL6YMEbKrYp-5" target="TuEI_6CooeL6YMEbKrYp-6" edge="1">
          <mxGeometry relative="1" as="geometry" />
        </mxCell>
        <mxCell id="TuEI_6CooeL6YMEbKrYp-5" value="Aggregator" style="rounded=0;whiteSpace=wrap;html=1;fillColor=#dae8fc;strokeColor=#6c8ebf;" parent="1" vertex="1">
          <mxGeometry x="860" y="338.75" width="120" height="60" as="geometry" />
        </mxCell>
        <mxCell id="TuEI_6CooeL6YMEbKrYp-26" style="edgeStyle=orthogonalEdgeStyle;rounded=0;orthogonalLoop=1;jettySize=auto;html=1;exitX=1;exitY=0.5;exitDx=0;exitDy=0;exitPerimeter=0;entryX=0;entryY=0.5;entryDx=0;entryDy=0;" parent="1" source="TuEI_6CooeL6YMEbKrYp-7" target="TuEI_6CooeL6YMEbKrYp-25" edge="1">
          <mxGeometry relative="1" as="geometry">
            <mxPoint x="1240" y="380" as="targetPoint" />
          </mxGeometry>
        </mxCell>
        <mxCell id="TuEI_6CooeL6YMEbKrYp-6" value="Trainer/Test" style="rounded=0;whiteSpace=wrap;html=1;fillColor=#d5e8d4;strokeColor=#82b366;" parent="1" vertex="1">
          <mxGeometry x="1020" y="338.75" width="120" height="60" as="geometry" />
        </mxCell>
        <mxCell id="TuEI_6CooeL6YMEbKrYp-7" value="Models" style="shape=cylinder3;whiteSpace=wrap;html=1;boundedLbl=1;backgroundOutline=1;size=15;fillColor=#f5f5f5;fontColor=#333333;strokeColor=#666666;" parent="1" vertex="1">
          <mxGeometry x="1190" y="218.75" width="60" height="80" as="geometry" />
        </mxCell>
        <mxCell id="TuEI_6CooeL6YMEbKrYp-13" value="2" style="ellipse;whiteSpace=wrap;html=1;aspect=fixed;fillColor=#FF8000;strokeColor=#d79b00;" parent="1" vertex="1">
          <mxGeometry x="285" y="298.75" width="30" height="30" as="geometry" />
        </mxCell>
        <mxCell id="TuEI_6CooeL6YMEbKrYp-14" value="1" style="ellipse;whiteSpace=wrap;html=1;aspect=fixed;fillColor=#FF8000;strokeColor=#d79b00;" parent="1" vertex="1">
          <mxGeometry x="125" y="283.75" width="30" height="30" as="geometry" />
        </mxCell>
        <mxCell id="TuEI_6CooeL6YMEbKrYp-16" value="3" style="ellipse;whiteSpace=wrap;html=1;aspect=fixed;fillColor=#FF8000;strokeColor=#d79b00;" parent="1" vertex="1">
          <mxGeometry x="455" y="298.75" width="30" height="30" as="geometry" />
        </mxCell>
        <mxCell id="TuEI_6CooeL6YMEbKrYp-17" value="6" style="ellipse;whiteSpace=wrap;html=1;aspect=fixed;fillColor=#FF8000;strokeColor=#d79b00;" parent="1" vertex="1">
          <mxGeometry x="905" y="298.75" width="30" height="30" as="geometry" />
        </mxCell>
        <mxCell id="TuEI_6CooeL6YMEbKrYp-18" value="8" style="ellipse;whiteSpace=wrap;html=1;aspect=fixed;fillColor=#FF8000;strokeColor=#d79b00;" parent="1" vertex="1">
          <mxGeometry x="1205" y="178.75" width="30" height="30" as="geometry" />
        </mxCell>
        <mxCell id="TuEI_6CooeL6YMEbKrYp-19" value="9" style="ellipse;whiteSpace=wrap;html=1;aspect=fixed;fillColor=#FF8000;strokeColor=#d79b00;" parent="1" vertex="1">
          <mxGeometry x="1345" y="290" width="30" height="30" as="geometry" />
        </mxCell>
        <mxCell id="TuEI_6CooeL6YMEbKrYp-21" value="" style="shape=curlyBracket;whiteSpace=wrap;html=1;rounded=1;labelPosition=left;verticalLabelPosition=middle;align=right;verticalAlign=middle;rotation=-90;" parent="1" vertex="1">
          <mxGeometry x="603.75" y="60" width="20" height="737.5" as="geometry" />
        </mxCell>
        <mxCell id="TuEI_6CooeL6YMEbKrYp-22" value="" style="shape=curlyBracket;whiteSpace=wrap;html=1;rounded=1;labelPosition=left;verticalLabelPosition=middle;align=right;verticalAlign=middle;rotation=-90;" parent="1" vertex="1">
          <mxGeometry x="1268.6" y="170.15" width="20" height="517.19" as="geometry" />
        </mxCell>
        <mxCell id="TuEI_6CooeL6YMEbKrYp-23" value="Pretrain Datasets&lt;br&gt;&lt;br&gt;[&lt;span style=&quot;background-color: transparent; color: light-dark(rgb(0, 0, 0), rgb(255, 255, 255));&quot;&gt;wearablepermed-hmc]&lt;/span&gt;" style="text;html=1;align=center;verticalAlign=middle;whiteSpace=wrap;rounded=0;" parent="1" vertex="1">
          <mxGeometry x="240" y="448.75" width="460" height="30" as="geometry" />
        </mxCell>
        <mxCell id="TuEI_6CooeL6YMEbKrYp-24" value="Traint/Test/Validate ML&amp;nbsp;&lt;span style=&quot;background-color: transparent; color: light-dark(rgb(0, 0, 0), rgb(255, 255, 255));&quot;&gt;Model&lt;/span&gt;" style="text;html=1;align=center;verticalAlign=middle;whiteSpace=wrap;rounded=0;" parent="1" vertex="1">
          <mxGeometry x="740" y="448.75" width="290" height="30" as="geometry" />
        </mxCell>
        <mxCell id="TuEI_6CooeL6YMEbKrYp-25" value="Validate" style="rounded=0;whiteSpace=wrap;html=1;fillColor=#d5e8d4;strokeColor=#82b366;" parent="1" vertex="1">
          <mxGeometry x="1300" y="328.75" width="120" height="60" as="geometry" />
        </mxCell>
        <mxCell id="TuEI_6CooeL6YMEbKrYp-27" style="edgeStyle=orthogonalEdgeStyle;rounded=0;orthogonalLoop=1;jettySize=auto;html=1;entryX=0;entryY=0.5;entryDx=0;entryDy=0;entryPerimeter=0;exitX=1;exitY=0.25;exitDx=0;exitDy=0;" parent="1" source="TuEI_6CooeL6YMEbKrYp-6" target="TuEI_6CooeL6YMEbKrYp-7" edge="1">
          <mxGeometry relative="1" as="geometry" />
        </mxCell>
        <mxCell id="TuEI_6CooeL6YMEbKrYp-28" value="&lt;font style=&quot;font-size: 36px;&quot;&gt;ML Pipeline&lt;/font&gt;" style="text;html=1;align=center;verticalAlign=middle;whiteSpace=wrap;rounded=0;" parent="1" vertex="1">
          <mxGeometry x="110" y="30" width="1310" height="30" as="geometry" />
        </mxCell>
        <mxCell id="2uUFkzXllgV1rvSKRyte-1" value="1" style="ellipse;whiteSpace=wrap;html=1;aspect=fixed;fillColor=#FF8000;strokeColor=#d79b00;" parent="1" vertex="1">
          <mxGeometry x="120" y="552.75" width="30" height="30" as="geometry" />
        </mxCell>
        <mxCell id="2uUFkzXllgV1rvSKRyte-2" value="bin accelerometer for (thigh, wrist, hip ) and excel activity file for each participant for activity inference and excel met files for Mets input datasets for Mets inference" style="text;html=1;align=left;verticalAlign=middle;whiteSpace=wrap;rounded=0;" parent="1" vertex="1">
          <mxGeometry x="155" y="552.75" width="880" height="30" as="geometry" />
        </mxCell>
        <mxCell id="2uUFkzXllgV1rvSKRyte-3" value="2" style="ellipse;whiteSpace=wrap;html=1;aspect=fixed;fillColor=#FF8000;strokeColor=#d79b00;" parent="1" vertex="1">
          <mxGeometry x="120" y="602.75" width="30" height="30" as="geometry" />
        </mxCell>
        <mxCell id="2uUFkzXllgV1rvSKRyte-4" value="Convert bin accelerometer for (thigh, wrist, hip) sensor file for each participant to csv files" style="text;html=1;align=left;verticalAlign=middle;whiteSpace=wrap;rounded=0;" parent="1" vertex="1">
          <mxGeometry x="155" y="602.75" width="880" height="30" as="geometry" />
        </mxCell>
        <mxCell id="2uUFkzXllgV1rvSKRyte-7" value="3" style="ellipse;whiteSpace=wrap;html=1;aspect=fixed;fillColor=#FF8000;strokeColor=#d79b00;" parent="1" vertex="1">
          <mxGeometry x="120" y="652.75" width="30" height="30" as="geometry" />
        </mxCell>
        <mxCell id="2uUFkzXllgV1rvSKRyte-8" value="For each accelerometer sensor data (thigh, wrist, hip) create window datasets. We can create datasets for convolutional and not convolutional models with and without features" style="text;html=1;align=left;verticalAlign=middle;whiteSpace=wrap;rounded=0;" parent="1" vertex="1">
          <mxGeometry x="155" y="652.75" width="880" height="30" as="geometry" />
        </mxCell>
        <mxCell id="2uUFkzXllgV1rvSKRyte-9" value="6" style="ellipse;whiteSpace=wrap;html=1;aspect=fixed;fillColor=#FF8000;strokeColor=#d79b00;" parent="1" vertex="1">
          <mxGeometry x="120" y="797.5" width="30" height="30" as="geometry" />
        </mxCell>
        <mxCell id="2uUFkzXllgV1rvSKRyte-10" value="Agregate all windowed mets datasets for each sensor participant to used for training models" style="text;html=1;align=left;verticalAlign=middle;whiteSpace=wrap;rounded=0;" parent="1" vertex="1">
          <mxGeometry x="155" y="797.5" width="880" height="30" as="geometry" />
        </mxCell>
        <mxCell id="2uUFkzXllgV1rvSKRyte-11" value="7" style="ellipse;whiteSpace=wrap;html=1;aspect=fixed;fillColor=#FF8000;strokeColor=#d79b00;" parent="1" vertex="1">
          <mxGeometry x="1065" y="298.75" width="30" height="30" as="geometry" />
        </mxCell>
        <mxCell id="2uUFkzXllgV1rvSKRyte-12" value="7" style="ellipse;whiteSpace=wrap;html=1;aspect=fixed;fillColor=#FF8000;strokeColor=#d79b00;" parent="1" vertex="1">
          <mxGeometry x="120" y="847.5" width="30" height="30" as="geometry" />
        </mxCell>
        <mxCell id="2uUFkzXllgV1rvSKRyte-13" value="Train models (convolution and Randomforest) from previous agregated datasets" style="text;html=1;align=left;verticalAlign=middle;whiteSpace=wrap;rounded=0;" parent="1" vertex="1">
          <mxGeometry x="155" y="847.5" width="880" height="30" as="geometry" />
        </mxCell>
        <mxCell id="2uUFkzXllgV1rvSKRyte-14" value="9" style="ellipse;whiteSpace=wrap;html=1;aspect=fixed;fillColor=#FF8000;strokeColor=#d79b00;" parent="1" vertex="1">
          <mxGeometry x="120" y="944.75" width="30" height="30" as="geometry" />
        </mxCell>
        <mxCell id="2uUFkzXllgV1rvSKRyte-15" value="Validate the models: confussion matrix and validation reports for each model" style="text;html=1;align=left;verticalAlign=middle;whiteSpace=wrap;rounded=0;" parent="1" vertex="1">
          <mxGeometry x="155" y="944.75" width="880" height="30" as="geometry" />
        </mxCell>
        <mxCell id="2uUFkzXllgV1rvSKRyte-16" value="10" style="ellipse;whiteSpace=wrap;html=1;aspect=fixed;fillColor=#FF8000;strokeColor=#d79b00;" parent="1" vertex="1">
          <mxGeometry x="120" y="990.75" width="30" height="30" as="geometry" />
        </mxCell>
        <mxCell id="2uUFkzXllgV1rvSKRyte-17" value="Save validation resources in hard disk by case using text and image formats" style="text;html=1;align=left;verticalAlign=middle;whiteSpace=wrap;rounded=0;" parent="1" vertex="1">
          <mxGeometry x="155" y="990.75" width="880" height="30" as="geometry" />
        </mxCell>
        <mxCell id="SJx1a4u9_P3OYFkr1gW0-2" style="edgeStyle=orthogonalEdgeStyle;rounded=0;orthogonalLoop=1;jettySize=auto;html=1;" edge="1" parent="1" source="0BbZo_aPZFD1kCcCwOeu-1" target="SJx1a4u9_P3OYFkr1gW0-1">
          <mxGeometry relative="1" as="geometry" />
        </mxCell>
        <mxCell id="0BbZo_aPZFD1kCcCwOeu-1" value="Windowed Mets" style="rounded=0;whiteSpace=wrap;html=1;fillColor=#dae8fc;strokeColor=#6c8ebf;" parent="1" vertex="1">
          <mxGeometry x="660" y="178.75" width="120" height="60" as="geometry" />
        </mxCell>
        <mxCell id="0BbZo_aPZFD1kCcCwOeu-5" style="edgeStyle=orthogonalEdgeStyle;rounded=0;orthogonalLoop=1;jettySize=auto;html=1;entryX=0;entryY=0.5;entryDx=0;entryDy=0;" parent="1" source="0BbZo_aPZFD1kCcCwOeu-2" target="TuEI_6CooeL6YMEbKrYp-5" edge="1">
          <mxGeometry relative="1" as="geometry" />
        </mxCell>
        <mxCell id="0BbZo_aPZFD1kCcCwOeu-7" value="NO" style="edgeLabel;html=1;align=center;verticalAlign=middle;resizable=0;points=[];" parent="0BbZo_aPZFD1kCcCwOeu-5" vertex="1" connectable="0">
          <mxGeometry x="-0.11" y="-3" relative="1" as="geometry">
            <mxPoint as="offset" />
          </mxGeometry>
        </mxCell>
        <mxCell id="0BbZo_aPZFD1kCcCwOeu-2" value="Mets" style="rhombus;whiteSpace=wrap;html=1;" parent="1" vertex="1">
          <mxGeometry x="580" y="328.75" width="80" height="80" as="geometry" />
        </mxCell>
        <mxCell id="0BbZo_aPZFD1kCcCwOeu-3" style="edgeStyle=orthogonalEdgeStyle;rounded=0;orthogonalLoop=1;jettySize=auto;html=1;entryX=-0.025;entryY=0.638;entryDx=0;entryDy=0;entryPerimeter=0;exitX=0.5;exitY=0;exitDx=0;exitDy=0;" parent="1" source="0BbZo_aPZFD1kCcCwOeu-2" target="0BbZo_aPZFD1kCcCwOeu-1" edge="1">
          <mxGeometry relative="1" as="geometry">
            <Array as="points">
              <mxPoint x="620" y="217" />
            </Array>
          </mxGeometry>
        </mxCell>
        <mxCell id="0BbZo_aPZFD1kCcCwOeu-6" value="SI" style="edgeLabel;html=1;align=center;verticalAlign=middle;resizable=0;points=[];" parent="0BbZo_aPZFD1kCcCwOeu-3" vertex="1" connectable="0">
          <mxGeometry x="-0.5574" y="3" relative="1" as="geometry">
            <mxPoint as="offset" />
          </mxGeometry>
        </mxCell>
        <mxCell id="SJx1a4u9_P3OYFkr1gW0-4" style="edgeStyle=orthogonalEdgeStyle;rounded=0;orthogonalLoop=1;jettySize=auto;html=1;entryX=0;entryY=0.25;entryDx=0;entryDy=0;" edge="1" parent="1" source="SJx1a4u9_P3OYFkr1gW0-1" target="TuEI_6CooeL6YMEbKrYp-6">
          <mxGeometry relative="1" as="geometry" />
        </mxCell>
        <mxCell id="SJx1a4u9_P3OYFkr1gW0-1" value="Aggregator" style="rounded=0;whiteSpace=wrap;html=1;fillColor=#dae8fc;strokeColor=#6c8ebf;" vertex="1" parent="1">
          <mxGeometry x="859" y="178.75" width="120" height="60" as="geometry" />
        </mxCell>
        <mxCell id="SJx1a4u9_P3OYFkr1gW0-5" value="4" style="ellipse;whiteSpace=wrap;html=1;aspect=fixed;fillColor=#FF8000;strokeColor=#d79b00;" vertex="1" parent="1">
          <mxGeometry x="700" y="140" width="30" height="30" as="geometry" />
        </mxCell>
        <mxCell id="SJx1a4u9_P3OYFkr1gW0-6" value="5" style="ellipse;whiteSpace=wrap;html=1;aspect=fixed;fillColor=#FF8000;strokeColor=#d79b00;" vertex="1" parent="1">
          <mxGeometry x="895" y="140" width="30" height="30" as="geometry" />
        </mxCell>
        <mxCell id="SJx1a4u9_P3OYFkr1gW0-7" style="edgeStyle=orthogonalEdgeStyle;rounded=0;orthogonalLoop=1;jettySize=auto;html=1;exitX=0.5;exitY=1;exitDx=0;exitDy=0;" edge="1" parent="1" source="TuEI_6CooeL6YMEbKrYp-25" target="TuEI_6CooeL6YMEbKrYp-25">
          <mxGeometry relative="1" as="geometry" />
        </mxCell>
        <mxCell id="SJx1a4u9_P3OYFkr1gW0-8" value="Validation&lt;div&gt;Reports&lt;div&gt;&lt;br&gt;&lt;/div&gt;&lt;/div&gt;" style="shape=cylinder3;whiteSpace=wrap;html=1;boundedLbl=1;backgroundOutline=1;size=15;fillColor=#f5f5f5;fontColor=#333333;strokeColor=#666666;" vertex="1" parent="1">
          <mxGeometry x="1480" y="218.75" width="60" height="80" as="geometry" />
        </mxCell>
        <mxCell id="SJx1a4u9_P3OYFkr1gW0-9" style="edgeStyle=orthogonalEdgeStyle;rounded=0;orthogonalLoop=1;jettySize=auto;html=1;entryX=0;entryY=0.5;entryDx=0;entryDy=0;entryPerimeter=0;" edge="1" parent="1" source="TuEI_6CooeL6YMEbKrYp-25" target="SJx1a4u9_P3OYFkr1gW0-8">
          <mxGeometry relative="1" as="geometry" />
        </mxCell>
        <mxCell id="SJx1a4u9_P3OYFkr1gW0-11" value="10" style="ellipse;whiteSpace=wrap;html=1;aspect=fixed;fillColor=#FF8000;strokeColor=#d79b00;" vertex="1" parent="1">
          <mxGeometry x="1495" y="178.75" width="30" height="30" as="geometry" />
        </mxCell>
        <mxCell id="SJx1a4u9_P3OYFkr1gW0-13" style="edgeStyle=orthogonalEdgeStyle;rounded=0;orthogonalLoop=1;jettySize=auto;html=1;exitX=1;exitY=0.5;exitDx=0;exitDy=0;exitPerimeter=0;entryX=0;entryY=0.25;entryDx=0;entryDy=0;" edge="1" parent="1" source="SJx1a4u9_P3OYFkr1gW0-12" target="0BbZo_aPZFD1kCcCwOeu-1">
          <mxGeometry relative="1" as="geometry" />
        </mxCell>
        <mxCell id="SJx1a4u9_P3OYFkr1gW0-12" value="&lt;div&gt;Mets&lt;/div&gt;&lt;div&gt;Input&lt;/div&gt;Datasets" style="shape=cylinder3;whiteSpace=wrap;html=1;boundedLbl=1;backgroundOutline=1;size=15;fillColor=#f5f5f5;fontColor=#333333;strokeColor=#666666;" vertex="1" parent="1">
          <mxGeometry x="500" y="110" width="60" height="80" as="geometry" />
        </mxCell>
        <mxCell id="SJx1a4u9_P3OYFkr1gW0-14" value="1" style="ellipse;whiteSpace=wrap;html=1;aspect=fixed;fillColor=#FF8000;strokeColor=#d79b00;" vertex="1" parent="1">
          <mxGeometry x="515" y="70" width="30" height="30" as="geometry" />
        </mxCell>
        <mxCell id="SJx1a4u9_P3OYFkr1gW0-15" value="8" style="ellipse;whiteSpace=wrap;html=1;aspect=fixed;fillColor=#FF8000;strokeColor=#d79b00;" vertex="1" parent="1">
          <mxGeometry x="120" y="898.25" width="30" height="30" as="geometry" />
        </mxCell>
        <mxCell id="SJx1a4u9_P3OYFkr1gW0-16" value="Save models trainded to hard disk with h5 format by case" style="text;html=1;align=left;verticalAlign=middle;whiteSpace=wrap;rounded=0;" vertex="1" parent="1">
          <mxGeometry x="155" y="898.25" width="880" height="30" as="geometry" />
        </mxCell>
        <mxCell id="SJx1a4u9_P3OYFkr1gW0-17" value="4" style="ellipse;whiteSpace=wrap;html=1;aspect=fixed;fillColor=#FF8000;strokeColor=#d79b00;" vertex="1" parent="1">
          <mxGeometry x="120" y="700" width="30" height="30" as="geometry" />
        </mxCell>
        <mxCell id="SJx1a4u9_P3OYFkr1gW0-18" value="For each acceleromter sensor data (thing, wrist, hip) create window datasets for met features." style="text;html=1;align=left;verticalAlign=middle;whiteSpace=wrap;rounded=0;" vertex="1" parent="1">
          <mxGeometry x="155" y="700" width="880" height="30" as="geometry" />
        </mxCell>
        <mxCell id="SJx1a4u9_P3OYFkr1gW0-19" value="5" style="ellipse;whiteSpace=wrap;html=1;aspect=fixed;fillColor=#FF8000;strokeColor=#d79b00;" vertex="1" parent="1">
          <mxGeometry x="120" y="750" width="30" height="30" as="geometry" />
        </mxCell>
        <mxCell id="SJx1a4u9_P3OYFkr1gW0-20" value="Agregate all windowed datasets for each sensor participant to used for training models" style="text;html=1;align=left;verticalAlign=middle;whiteSpace=wrap;rounded=0;" vertex="1" parent="1">
          <mxGeometry x="155" y="750" width="880" height="30" as="geometry" />
        </mxCell>
      </root>
    </mxGraphModel>
  </diagram>
</mxfile>
